<svg width="603" height="603" viewBox="0 0 603 603" xmlns="http://www.w3.org/2000/svg"><title>icon-gear</title><path d="M380.874 179.583c-15-9.912-31.957-17.09-50.163-20.83V118h-58.03v40.716c-18.65 3.807-36 11.224-51.275 21.492l-28.967-28.967-41.033 41.036L180.7 221.57c-9.7 14.942-16.717 31.798-20.357 49.88H118v59.305h42.744c3.813 17.688 10.864 34.167 20.498 48.785l-30.825 30.825 41.935 41.934 30.965-30.967c14.806 9.613 31.485 16.58 49.364 20.228v43.83h58.03v-43.865c17.874-3.672 34.54-10.657 49.336-20.288l30.866 30.865 41.034-41.033-30.594-30.595c9.953-14.85 17.225-31.656 21.12-49.723h42.922V271.45h-42.52c-3.628-18.023-10.61-34.828-20.26-49.735l29.525-29.526-41.935-41.938-29.33 29.33zm-21.148 121.52c0-32.114-25.997-58.12-58.03-58.12s-58.03 26.006-58.03 58.12 25.997 58.12 58.03 58.12 58.03-26.006 58.03-58.12z" fill="#27374F" fill-rule="evenodd"/></svg>